<svg width="17" height="14" viewBox="0 0 17 14" fill="none" xmlns="http://www.w3.org/2000/svg">
    <path d="M0.286021 7.66891L6.53526 13.723C6.91654 14.0923 7.53491 14.0923 7.91619 13.723C8.29755 13.3535 8.29755 12.7546 7.91619 12.3852L3.33385 7.94596L16.0236 7.94596C16.5628 7.94596 17 7.5224 17 7.00001C17 6.4777 16.5628 6.05406 16.0236 6.05406L3.33385 6.05406L7.91604 1.61484C8.2974 1.24539 8.2974 0.646497 7.91604 0.277047C7.72543 0.0924741 7.47546 -1.78634e-06 7.22557 -1.80818e-06C6.97568 -1.83003e-06 6.72579 0.092474 6.53511 0.277047L0.286021 6.33111C-0.0953401 6.70056 -0.0953401 7.29946 0.286021 7.66891Z" fill="black"/>
</svg>
